<svg xmlns="http://www.w3.org/2000/svg" xmlns:xlink="http://www.w3.org/1999/xlink" width="500" zoomAndPan="magnify" viewBox="0 0 375 374.999991" height="500" preserveAspectRatio="xMidYMid meet" version="1.0"><defs><clipPath id="f07ce2c50f"><path d="M 21.777344 21.777344 L 353.277344 21.777344 L 353.277344 353.277344 L 21.777344 353.277344 Z M 21.777344 21.777344 " clip-rule="nonzero"/></clipPath></defs><path fill="#b28756" d="M 187.488281 186.964844 L 130.800781 285.148438 L 187.488281 228.007812 L 244.175781 285.148438 L 187.488281 186.964844 " fill-opacity="1" fill-rule="nonzero"/><path fill="#c27b2c" d="M 102 285.148438 L 187.488281 137.078125 L 82.066406 243.347656 Z M 102 285.148438 " fill-opacity="1" fill-rule="nonzero"/><path fill="#b28756" d="M 82.066406 243.347656 L 187.488281 137.078125 L 272.972656 285.148438 L 187.488281 60.75 L 82.066406 243.347656 " fill-opacity="1" fill-rule="nonzero"/><path fill="#c27b2c" d="M 187.488281 60.75 L 272.972656 285.148438 L 292.910156 243.347656 Z M 187.488281 60.75 " fill-opacity="1" fill-rule="nonzero"/><g clip-path="url(#f07ce2c50f)"><path fill="#b28756" d="M 187.488281 325.128906 C 111.46875 325.128906 49.847656 263.507812 49.847656 187.488281 C 49.847656 111.46875 111.46875 49.847656 187.488281 49.847656 C 263.507812 49.847656 325.128906 111.46875 325.128906 187.488281 C 325.128906 263.507812 263.507812 325.128906 187.488281 325.128906 Z M 187.488281 21.75 C 95.953125 21.75 21.75 95.953125 21.75 187.488281 C 21.75 279.019531 95.953125 353.222656 187.488281 353.222656 C 279.019531 353.222656 353.222656 279.019531 353.222656 187.488281 C 353.222656 95.953125 279.019531 21.75 187.488281 21.75 " fill-opacity="1" fill-rule="nonzero"/></g></svg>